<svg width="25" height="24" viewBox="0 0 25 24" fill="none" xmlns="http://www.w3.org/2000/svg">
<g clip-path="url(#clip0_4_959)">
<path d="M12.1899 22.64C11.8166 22.64 11.4966 22.5333 11.2299 22.32L8.50994 20C6.96327 18.6667 5.84327 17.68 5.14994 17.04C4.08327 16.0267 3.22994 15.1467 2.58994 14.4C0.989941 12.48 0.189941 10.5333 0.189941 8.56001C0.189941 7.54668 0.349941 6.60002 0.669941 5.72001C0.989941 4.84002 1.45661 4.06668 2.06994 3.40001C2.68327 2.73335 3.40327 2.21335 4.22994 1.84002C5.05661 1.46668 5.94994 1.28002 6.90994 1.28002C8.29661 1.28002 9.54994 1.73335 10.6699 2.64001C11.2566 3.06668 11.7633 3.60002 12.1899 4.24002C12.6166 3.60002 13.1233 3.06668 13.7099 2.64001C14.8299 1.73335 16.0833 1.28002 17.4699 1.28002C18.4299 1.28002 19.3233 1.46668 20.1499 1.84002C20.9766 2.21335 21.6966 2.73335 22.3099 3.40001C22.9233 4.06668 23.3899 4.84002 23.7099 5.72001C24.0299 6.60002 24.1899 7.54668 24.1899 8.56001C24.1899 10.5333 23.3899 12.48 21.7899 14.4C21.1499 15.1467 20.2966 16.0267 19.2299 17.04C18.5366 17.68 17.4166 18.6667 15.8699 20L13.1499 22.32C12.8833 22.5333 12.5633 22.64 12.1899 22.64ZM6.90994 2.72001C6.16327 2.72001 5.46994 2.86668 4.82994 3.16002C4.18994 3.45335 3.62994 3.84002 3.14994 4.32001C2.13661 5.44002 1.62994 6.85335 1.62994 8.56001C1.62994 9.41335 1.78994 10.2267 2.10994 11C2.42994 11.7733 2.93661 12.5867 3.62994 13.44C4.26994 14.1867 5.12327 15.0667 6.18994 16.08C6.82994 16.6667 7.92327 17.6 9.46994 18.88L12.1899 21.28L14.9099 18.88C16.4566 17.6 17.5499 16.6667 18.1899 16.08C19.2566 15.0667 20.1099 14.1867 20.7499 13.44C21.4433 12.5867 21.9499 11.7733 22.2699 11C22.5899 10.2267 22.7499 9.41335 22.7499 8.56001C22.7499 6.85335 22.2433 5.44002 21.2299 4.32001C20.7499 3.84002 20.1899 3.45335 19.5499 3.16002C18.9099 2.86668 18.2166 2.72001 17.4699 2.72001C16.4033 2.72001 15.4433 3.06668 14.5899 3.76002C13.9499 4.24002 13.4166 4.85335 12.9899 5.60002C12.7766 5.86668 12.5099 6.00002 12.1899 6.00002C11.8699 6.00002 11.6033 5.86668 11.3899 5.60002C10.9633 4.85335 10.4299 4.24002 9.78994 3.76002C8.93661 3.06668 7.97661 2.72001 6.90994 2.72001Z" fill="#90A8C5"/>
</g>
<defs>
<clipPath id="clip0_4_959">
<rect width="24" height="24" fill="white" transform="matrix(1 0 0 -1 0.189941 24)"/>
</clipPath>
</defs>
</svg>
