<svg width="25" height="24" viewBox="0 0 25 24" fill="none" xmlns="http://www.w3.org/2000/svg">
<g clip-path="url(#clip0_4_964)">
<path d="M22.7502 11.36C22.5902 11.36 22.4435 11.4134 22.3102 11.52C22.1768 11.6267 22.0835 11.76 22.0302 11.92L20.9902 19.52C20.9368 19.8934 20.7502 20.2134 20.4302 20.48C20.1102 20.7467 19.7635 20.88 19.3902 20.88H4.99016C4.61682 20.88 4.27016 20.7467 3.95016 20.48C3.63016 20.2134 3.44349 19.8934 3.39016 19.52L2.35016 11.92C2.29682 11.76 2.20349 11.6267 2.07016 11.52C1.93682 11.4134 1.79016 11.3734 1.63016 11.4C1.47016 11.4267 1.33682 11.5067 1.23016 11.64C1.12349 11.7734 1.09682 11.92 1.15016 12.08L2.19016 19.68C2.29682 20.3734 2.61682 20.9467 3.15016 21.4C3.68349 21.8534 4.29682 22.08 4.99016 22.08H19.3902C20.0835 22.08 20.6968 21.8534 21.2302 21.4C21.7635 20.9467 22.0835 20.3734 22.1902 19.68L23.2302 12.08C23.2835 11.92 23.2568 11.7734 23.1502 11.64C23.0435 11.5067 22.9102 11.44 22.7502 11.44V11.36ZM23.3902 8.96002H19.3902L14.6702 2.24002C14.5102 2.02668 14.3235 1.93335 14.1102 1.96002C13.8968 1.98668 13.7235 2.09335 13.5902 2.28002C13.4568 2.46668 13.4702 2.66669 13.6302 2.88002L17.8702 8.96002H6.51016L10.7502 2.88002C10.8568 2.66669 10.8568 2.46668 10.7502 2.28002C10.6435 2.09335 10.4835 1.98668 10.2702 1.96002C10.0568 1.93335 9.87016 2.02668 9.71016 2.24002L4.99016 8.96002H0.990156C0.72349 8.96002 0.550156 9.05335 0.470156 9.24002C0.390156 9.42668 0.390156 9.62668 0.470156 9.84002C0.550156 10.0534 0.72349 10.16 0.990156 10.16H23.3902C23.6568 10.16 23.8302 10.0534 23.9102 9.84002C23.9902 9.62668 23.9902 9.42668 23.9102 9.24002C23.8302 9.05335 23.6568 8.96002 23.3902 8.96002ZM8.19016 18.56C8.40349 18.56 8.56349 18.4934 8.67016 18.36C8.77682 18.2267 8.83016 18.0534 8.83016 17.84L8.03016 13.68C7.97682 13.4134 7.84349 13.2534 7.63016 13.2C7.41682 13.1467 7.23016 13.1867 7.07016 13.32C6.91016 13.4534 6.85682 13.6267 6.91016 13.84L7.63016 18.08C7.63016 18.1867 7.69682 18.2934 7.83016 18.4C7.96349 18.5067 8.08349 18.56 8.19016 18.56ZM16.7502 18.08L17.4702 13.84C17.5235 13.6267 17.4702 13.4534 17.3102 13.32C17.1502 13.1867 16.9635 13.1467 16.7502 13.2C16.5368 13.2534 16.4035 13.4134 16.3502 13.68L15.5502 17.84C15.5502 18.1067 15.6302 18.3067 15.7902 18.44C15.9502 18.5734 16.1368 18.6 16.3502 18.52C16.5635 18.44 16.6968 18.2934 16.7502 18.08ZM12.8302 17.92V13.76C12.7768 13.4934 12.6568 13.32 12.4702 13.24C12.2835 13.16 12.0968 13.16 11.9102 13.24C11.7235 13.32 11.6035 13.4934 11.5502 13.76V17.92C11.6035 18.1867 11.7235 18.3734 11.9102 18.48C12.0968 18.5867 12.2835 18.5867 12.4702 18.48C12.6568 18.3734 12.7768 18.1867 12.8302 17.92Z" fill="#90A8C5"/>
</g>
<defs>
<clipPath id="clip0_4_964">
<rect width="24" height="24" fill="white" transform="matrix(1 0 0 -1 0.189941 24)"/>
</clipPath>
</defs>
</svg>
